<mxfile host="www.draw.io" modified="2020-03-09T06:06:52.889Z" agent="Mozilla/5.0 (X11; Ubuntu; Linux x86_64; rv:73.0) Gecko/20100101 Firefox/73.0" etag="Yj6wo7AXn9oGtFWUEnwA" version="12.8.1" type="github">
  <diagram id="CGf9x__8BU_l-CWnux-o" name="Page-1">
    <mxGraphModel dx="1351" dy="737" grid="1" gridSize="10" guides="1" tooltips="1" connect="1" arrows="1" fold="1" page="1" pageScale="1" pageWidth="850" pageHeight="1100" math="0" shadow="0">
      <root>
        <mxCell id="0" />
        <mxCell id="1" parent="0" />
        <mxCell id="HGy6IaU5bl7dVKT_Dl8D-1" value="" style="rounded=0;whiteSpace=wrap;html=1;" vertex="1" parent="1">
          <mxGeometry x="40" y="150" width="120" height="60" as="geometry" />
        </mxCell>
      </root>
    </mxGraphModel>
  </diagram>
</mxfile>
